<?xml version="1.0" encoding="utf-8"?>
<!-- Generator: Adobe Illustrator 14.0.0, SVG Export Plug-In . SVG Version: 6.00 Build 43363)  -->
<!DOCTYPE svg PUBLIC "-//W3C//DTD SVG 1.1//EN" "http://www.w3.org/Graphics/SVG/1.1/DTD/svg11.dtd">
<svg version="1.1" id="Layer_1" xmlns="http://www.w3.org/2000/svg" xmlns:xlink="http://www.w3.org/1999/xlink" x="0px" y="0px"
	 width="1534px" height="192px" viewBox="0 0 1534 192" enable-background="new 0 0 1534 192" xml:space="preserve">
<g>
	<path fill="#FFFFFF" d="M101.518,75.411c-1.328-2.133-2.985-4.003-4.976-5.616c-1.99-1.61-4.242-2.865-6.752-3.767
		c-2.512-0.899-5.142-1.351-7.89-1.351c-5.024,0-9.289,0.973-12.794,2.915c-3.507,1.943-6.351,4.549-8.529,7.819
		c-2.182,3.27-3.768,6.99-4.763,11.159c-0.995,4.172-1.493,8.483-1.493,12.937c0,4.265,0.498,8.412,1.493,12.439
		c0.995,4.029,2.581,7.654,4.763,10.875c2.179,3.224,5.022,5.807,8.529,7.748c3.505,1.943,7.77,2.914,12.794,2.914
		c6.824,0,12.155-2.083,15.993-6.255c3.838-4.169,6.184-9.667,7.037-16.49h21.608c-0.569,6.351-2.039,12.083-4.407,17.201
		c-2.37,5.117-5.498,9.478-9.383,13.079c-3.887,3.603-8.437,6.351-13.647,8.245c-5.213,1.895-10.946,2.843-17.202,2.843
		c-7.772,0-14.762-1.351-20.968-4.052c-6.208-2.701-11.444-6.419-15.709-11.159c-4.265-4.738-7.535-10.307-9.809-16.704
		s-3.412-13.292-3.412-20.685c0-7.581,1.137-14.618,3.412-21.11c2.274-6.491,5.544-12.155,9.809-16.988s9.5-8.623,15.709-11.373
		c6.206-2.748,13.196-4.123,20.968-4.123c5.591,0,10.875,0.806,15.851,2.417c4.976,1.613,9.429,3.958,13.363,7.037
		c3.932,3.081,7.179,6.895,9.738,11.444c2.559,4.549,4.169,9.763,4.833,15.638h-21.608
		C103.697,79.889,102.844,77.543,101.518,75.411z"/>
	<path fill="#FFFFFF" d="M164.068,48.329v38.952h41.084V48.329h22.32v101.503h-22.32v-43.785h-41.084v43.785h-22.319V48.329H164.068
		z"/>
	<path fill="#FFFFFF" d="M301.822,48.329c4.549,0,8.646,0.735,12.297,2.204c3.646,1.471,6.773,3.483,9.383,6.042
		c2.605,2.559,4.596,5.522,5.971,8.885c1.371,3.365,2.061,6.991,2.061,10.875c0,5.971-1.258,11.137-3.768,15.496
		c-2.512,4.36-6.609,7.676-12.297,9.951v0.285c2.748,0.76,5.023,1.919,6.824,3.482c1.799,1.563,3.27,3.412,4.406,5.544
		c1.139,2.133,1.967,4.479,2.488,7.037c0.52,2.56,0.875,5.118,1.066,7.677c0.094,1.613,0.189,3.508,0.285,5.687
		c0.092,2.182,0.26,4.407,0.496,6.682s0.615,4.432,1.139,6.469c0.52,2.039,1.301,3.767,2.346,5.188h-22.32
		c-1.232-3.221-1.99-7.06-2.273-11.515c-0.285-4.454-0.711-8.719-1.281-12.795c-0.758-5.307-2.369-9.191-4.832-11.657
		c-2.467-2.463-6.494-3.696-12.084-3.696h-22.32v39.663H247.09V48.329H301.822z M293.861,94.247c5.117,0,8.955-1.137,11.514-3.412
		c2.561-2.275,3.84-5.971,3.84-11.089c0-4.927-1.279-8.505-3.84-10.733c-2.559-2.226-6.396-3.341-11.514-3.341h-24.453v28.574
		H293.861z"/>
	<path fill="#FFFFFF" d="M372.047,48.329v101.503h-22.318V48.329H372.047z"/>
	<path fill="#FFFFFF" d="M408.725,124.812c1.23,2.37,2.865,4.289,4.904,5.758c2.037,1.471,4.43,2.559,7.18,3.27
		c2.748,0.711,5.59,1.066,8.529,1.066c1.99,0,4.123-0.164,6.396-0.498c2.275-0.331,4.408-0.971,6.398-1.919
		c1.99-0.946,3.646-2.25,4.975-3.909c1.326-1.657,1.99-3.768,1.99-6.326c0-2.748-0.877-4.976-2.629-6.682
		c-1.756-1.706-4.053-3.128-6.896-4.265c-2.842-1.138-6.064-2.133-9.666-2.985c-3.604-0.854-7.25-1.8-10.947-2.844
		c-3.791-0.946-7.486-2.107-11.088-3.482c-3.604-1.373-6.824-3.15-9.666-5.331c-2.844-2.18-5.143-4.905-6.895-8.174
		c-1.756-3.27-2.631-7.226-2.631-11.871c0-5.211,1.113-9.738,3.34-13.576s5.141-7.037,8.744-9.596
		c3.6-2.559,7.676-4.454,12.225-5.687c4.551-1.23,9.1-1.848,13.648-1.848c5.307,0,10.4,0.593,15.281,1.777
		c4.881,1.186,9.217,3.105,13.008,5.758c3.791,2.654,6.801,6.042,9.027,10.164c2.227,4.123,3.342,9.123,3.342,14.998h-21.609
		c-0.191-3.032-0.83-5.544-1.918-7.534c-1.092-1.99-2.537-3.554-4.336-4.691c-1.803-1.137-3.863-1.941-6.186-2.417
		c-2.322-0.473-4.857-0.71-7.605-0.71c-1.801,0-3.602,0.191-5.4,0.568c-1.803,0.38-3.438,1.044-4.906,1.99
		c-1.469,0.949-2.678,2.132-3.625,3.554c-0.947,1.421-1.42,3.223-1.42,5.402c0,1.99,0.377,3.603,1.137,4.833
		c0.758,1.233,2.25,2.37,4.479,3.412c2.225,1.044,5.307,2.085,9.24,3.127c3.932,1.044,9.072,2.37,15.424,3.98
		c1.895,0.38,4.525,1.066,7.891,2.062c3.361,0.995,6.703,2.583,10.021,4.762c3.316,2.182,6.184,5.096,8.602,8.743
		c2.416,3.649,3.625,8.316,3.625,14.003c0,4.645-0.902,8.956-2.701,12.937c-1.803,3.98-4.479,7.417-8.033,10.307
		c-3.553,2.892-7.961,5.142-13.221,6.752s-11.35,2.417-18.268,2.417c-5.594,0-11.018-0.688-16.277-2.062
		c-5.26-1.372-9.904-3.529-13.932-6.468c-4.029-2.937-7.229-6.682-9.596-11.23c-2.369-4.55-3.508-9.952-3.412-16.207h21.609
		C406.877,119.552,407.492,122.444,408.725,124.812z"/>
	<path fill="#FFFFFF" d="M475.963,67.095V48.329h83.164v18.766h-30.422v82.737h-22.318V67.095H475.963z"/>
	<path fill="#FFFFFF" d="M593.104,48.329v101.503h-22.318V48.329H593.104z"/>
	<path fill="#FFFFFF" d="M634.898,48.329l42.363,68.095h0.285V48.329h20.898v101.503h-22.32l-42.221-67.953h-0.285v67.953h-20.896
		V48.329H634.898z"/>
	<path fill="#FFFFFF" d="M793.977,48.329v18.766h-53.596v21.75h49.189v17.343h-49.189v24.878h54.732v18.766h-77.051V48.329H793.977z
		"/>
	<path fill="#FFFFFF" d="M831.363,127.939v21.893h-22.318v-21.893H831.363z M825.109,119.409h-10.094l-5.402-43.785V48.329h21.039
		v27.295L825.109,119.409z"/>
	<path fill="#FFFFFF" d="M922.062,48.329v63.688c0,13.647-3.178,23.74-9.525,30.28c-6.35,6.539-15.592,9.809-27.721,9.809
		c-12.133,0-21.373-3.27-27.723-9.809c-6.35-6.54-9.523-16.633-9.523-30.28V48.329h2.842v63.688c0,12.226,2.795,21.515,8.389,27.863
		c5.59,6.351,14.262,9.524,26.016,9.524c11.75,0,20.422-3.174,26.016-9.524c5.59-6.349,8.387-15.638,8.387-27.863V48.329H922.062z"
		/>
	<path fill="#FFFFFF" d="M1010.484,48.329L969.4,107.042v42.79h-2.844v-42.79l-40.943-58.713h3.555l38.811,55.728l39.094-55.728
		H1010.484z"/>
	<path fill="#FFFFFF" d="M1081.848,146.989v2.843h-67.953V48.329h67.385v2.843h-64.541v44.354h60.703v2.844h-60.703v48.619H1081.848
		z"/>
	<path fill="#FFFFFF" d="M1185.766,48.329v101.503h-2.844V51.883h-0.283l-43.074,97.949h-3.129l-43.074-97.949h-0.285v97.949h-2.842
		V48.329h4.691l42.932,97.807h0.285l42.932-97.807H1185.766z"/>
	<path fill="#FFFFFF" d="M1275.611,48.329v63.688c0,13.647-3.178,23.74-9.525,30.28c-6.35,6.539-15.592,9.809-27.721,9.809
		c-12.133,0-21.373-3.27-27.723-9.809c-6.35-6.54-9.523-16.633-9.523-30.28V48.329h2.842v63.688c0,12.226,2.795,21.515,8.389,27.863
		c5.59,6.351,14.262,9.524,26.016,9.524c11.75,0,20.422-3.174,26.016-9.524c5.59-6.349,8.387-15.638,8.387-27.863V48.329H1275.611z"
		/>
	<path fill="#FFFFFF" d="M1290.963,149.832V48.329h41.512c10.613,0,18.385,2.11,23.314,6.326c4.926,4.218,7.484,10.782,7.676,19.689
		c0.189,6.824-1.611,12.488-5.402,16.988c-3.791,4.502-9.24,7.559-16.348,9.169v0.284c4.264,0.569,7.723,1.589,10.377,3.057
		c2.652,1.471,4.691,3.39,6.113,5.758c1.422,2.37,2.367,5.167,2.844,8.388c0.473,3.223,0.711,6.872,0.711,10.946
		c0,1.422,0.047,3.198,0.143,5.331c0.092,2.132,0.234,4.242,0.426,6.326c0.189,2.086,0.426,3.98,0.711,5.687
		c0.283,1.706,0.662,2.892,1.137,3.554h-3.127c-0.477-1.042-0.854-2.438-1.137-4.193c-0.285-1.753-0.498-3.625-0.641-5.616
		c-0.143-1.99-0.238-4.002-0.285-6.041c-0.049-2.037-0.07-3.861-0.07-5.474c0-4.169-0.309-7.89-0.924-11.159
		c-0.617-3.27-1.873-6.018-3.768-8.246c-1.896-2.226-4.598-3.932-8.104-5.117c-3.506-1.184-8.197-1.777-14.074-1.777h-38.24v47.624
		H1290.963z M1331.764,99.365c3.789,0,7.414-0.474,10.875-1.422c3.459-0.946,6.516-2.463,9.17-4.549
		c2.652-2.083,4.783-4.713,6.396-7.89c1.611-3.174,2.416-6.988,2.416-11.444c-0.094-7.202-2.273-12.817-6.539-16.846
		c-4.264-4.027-11.23-6.042-20.896-6.042h-39.379v48.193H1331.764z"/>
	<path fill="#FFFFFF" d="M1371.709,149.832h-3.127l41.084-101.503h3.695l40.09,101.503h-3.127l-13.363-33.408h-51.746
		L1371.709,149.832z M1411.656,51.172h-0.285l-25.02,62.409h49.473L1411.656,51.172z"/>
</g>
</svg>
